<?xml version="1.0" standalone="no"?>
<!DOCTYPE svg PUBLIC "-//W3C//DTD SVG 20010904//EN"
 "http://www.w3.org/TR/2001/REC-SVG-20010904/DTD/svg10.dtd">
<svg version="1.0" xmlns="http://www.w3.org/2000/svg"
 width="1024.000000pt" height="1024.000000pt" viewBox="0 0 1024.000000 1024.000000"
 preserveAspectRatio="xMidYMid meet">

<g transform="translate(0.000000,1024.000000) scale(0.100000,-0.100000)"
fill="#000000" stroke="none">
<path d="M4855 10163 c-1011 -60 -1941 -396 -2740 -988 -378 -280 -770 -672
-1050 -1050 -501 -676 -831 -1478 -944 -2295 -38 -278 -46 -392 -46 -710 0
-318 8 -432 46 -710 113 -817 443 -1619 944 -2295 280 -378 672 -770 1050
-1050 676 -501 1478 -831 2295 -944 278 -38 392 -46 710 -46 318 0 432 8 710
46 1127 156 2223 729 2988 1561 1053 1147 1518 2649 1296 4183 -115 798 -447
1596 -939 2260 -274 370 -661 760 -1032 1038 -869 653 -1964 1014 -3048 1005
-104 -1 -212 -3 -240 -5z m614 -414 c80 -6 150 -15 155 -19 4 -4 -10 -34 -32
-67 -93 -137 -183 -356 -223 -541 -26 -124 -36 -381 -20 -507 87 -666 579
-1203 1232 -1346 419 -91 881 3 1234 252 132 94 306 271 394 403 86 129 126
206 176 341 20 55 39 102 41 104 11 12 270 -286 404 -464 507 -676 804 -1424
907 -2290 13 -117 17 -227 17 -495 0 -369 -8 -486 -60 -795 -24 -139 -108
-494 -133 -557 l-10 -28 -93 61 c-168 110 -364 190 -571 231 -160 32 -434 32
-587 -1 -321 -68 -587 -209 -805 -426 -310 -308 -469 -686 -468 -1115 0 -226
35 -405 119 -609 91 -221 264 -455 447 -605 26 -21 47 -42 47 -47 0 -15 -303
-190 -485 -279 -492 -241 -967 -378 -1540 -447 -214 -25 -776 -25 -990 0
-1087 130 -2030 582 -2785 1337 -755 755 -1207 1698 -1337 2785 -25 214 -25
776 0 990 130 1087 582 2030 1337 2785 801 801 1834 1270 2980 1353 114 9 517
6 649 -4z m857 -150 c473 -129 921 -330 1327 -595 121 -79 312 -219 385 -281
l33 -28 -15 -86 c-42 -236 -156 -451 -330 -624 -354 -352 -875 -438 -1322
-220 -352 171 -588 495 -645 885 -18 125 -7 321 26 445 47 179 146 361 267
490 71 76 49 75 274 14z m2356 -5955 c54 -6 65 -10 60 -22 -3 -9 -1 -13 5 -9
5 3 96 -18 201 -47 208 -59 258 -82 378 -177 l73 -59 -25 -57 c-63 -144 -148
-313 -154 -304 -3 6 -10 7 -17 3 -16 -11 -111 -205 -106 -219 5 -15 -91 -166
-121 -191 -11 -10 -22 -23 -24 -31 -1 -7 -21 -37 -44 -67 -30 -40 -44 -51 -49
-42 -7 10 -9 9 -9 -5 0 -54 -77 -161 -274 -385 -139 -158 -404 -412 -430 -412
-12 0 -55 -30 -97 -67 -41 -38 -82 -74 -91 -81 -15 -12 -29 2 -121 119 -66 82
-103 138 -100 148 4 14 3 14 -6 1 -10 -13 -14 -11 -31 10 -96 117 -188 299
-227 447 -34 130 -43 353 -19 488 63 361 292 671 618 836 46 23 75 33 72 25
-4 -10 43 -2 172 31 98 24 186 42 196 40 9 -3 17 -2 16 2 -4 34 19 37 154 25z"/>
<path d="M3248 8019 c-284 -37 -498 -267 -515 -555 -17 -277 146 -519 412
-610 139 -47 325 -35 454 31 262 133 395 433 315 707 -85 287 -365 467 -666
427z m171 -419 c88 -44 130 -142 99 -231 -44 -130 -196 -175 -306 -92 -62 47
-90 145 -61 220 14 37 66 92 104 109 44 20 120 17 164 -6z"/>
<path d="M7078 6180 c-232 -42 -404 -188 -475 -405 -21 -65 -26 -100 -27 -185
-1 -179 57 -314 190 -440 118 -111 252 -164 419 -162 317 2 571 244 592 563
18 272 -152 523 -409 604 -88 28 -216 39 -290 25z m208 -432 c57 -39 79 -83
79 -158 0 -56 -4 -73 -27 -108 -60 -90 -183 -112 -276 -49 -39 27 -82 108 -82
156 1 152 180 245 306 159z"/>
<path d="M2992 5950 c-620 -64 -1112 -522 -1217 -1134 -19 -113 -19 -324 0
-444 69 -425 345 -801 732 -995 92 -47 247 -100 358 -123 125 -26 385 -26 505
0 322 69 588 223 783 454 123 147 196 277 257 461 159 477 40 1001 -310 1365
-249 258 -565 401 -930 420 -52 2 -132 0 -178 -4z m158 -410 c13 -9 13 -10 -1
-10 -26 0 -100 -71 -120 -114 -37 -83 -15 -182 54 -243 46 -40 97 -56 163 -51
175 15 253 225 130 354 -23 24 -40 44 -36 44 4 0 39 -11 80 -25 278 -95 502
-317 596 -592 18 -54 36 -121 40 -149 l6 -51 -39 -6 c-78 -13 -149 -86 -168
-175 -17 -81 42 -189 124 -228 l40 -19 -39 -84 c-33 -68 -123 -211 -134 -211
-1 0 2 22 7 49 32 155 -123 290 -274 240 -93 -31 -157 -128 -146 -221 16 -131
134 -217 259 -189 l43 10 -35 -29 c-61 -51 -179 -112 -278 -146 -504 -171
-1045 103 -1211 615 -23 71 -22 85 3 47 28 -44 99 -78 164 -79 87 0 155 40
194 117 16 31 19 54 16 106 -5 86 -38 138 -111 175 -110 55 -228 15 -291 -100
-16 -29 -17 -27 -12 80 5 134 37 250 102 376 l45 87 69 4 c57 3 77 9 111 33
58 41 89 102 89 175 l0 57 53 29 c126 70 247 110 374 123 110 12 116 12 133 1z"/>
<path d="M2715 5104 c-114 -62 -155 -180 -100 -291 37 -73 89 -106 175 -111
52 -3 75 0 106 16 146 75 160 272 26 366 -36 25 -54 31 -110 33 -48 2 -76 -1
-97 -13z"/>
<path d="M3554 5101 c-48 -22 -101 -82 -114 -131 -39 -139 61 -270 205 -270
182 0 279 204 163 344 -40 48 -98 76 -163 76 -27 0 -68 -9 -91 -19z"/>
<path d="M3134 4682 c-22 -11 -55 -37 -72 -58 -58 -70 -67 -150 -27 -231 44
-88 139 -133 239 -111 71 15 139 84 156 159 20 90 -14 175 -91 226 -55 36
-145 43 -205 15z"/>
<path d="M2735 4269 c-48 -14 -111 -74 -130 -124 -62 -161 76 -323 244 -285
75 17 144 85 159 156 36 165 -111 301 -273 253z"/>
<path d="M4908 2991 c-99 -27 -174 -68 -247 -136 -127 -118 -192 -262 -193
-430 -2 -112 13 -177 62 -281 90 -188 285 -317 501 -331 106 -7 206 13 309 63
97 46 222 169 268 265 114 237 70 514 -112 694 -40 40 -98 85 -133 103 -133
70 -314 91 -455 53z m237 -400 c76 -35 115 -95 115 -177 0 -158 -178 -248
-307 -155 -50 36 -77 91 -77 156 0 139 145 233 269 176z"/>
<path d="M8731 3574 c0 -11 3 -14 6 -6 3 7 2 16 -1 19 -3 4 -6 -2 -5 -13z"/>
<path d="M8731 3514 c0 -11 3 -14 6 -6 3 7 2 16 -1 19 -3 4 -6 -2 -5 -13z"/>
<path d="M8562 3490 c0 -19 2 -27 5 -17 2 9 2 25 0 35 -3 9 -5 1 -5 -18z"/>
<path d="M8780 3406 c0 -2 8 -10 18 -17 15 -13 16 -12 3 4 -13 16 -21 21 -21
13z"/>
<path d="M9089 3393 c-13 -16 -12 -17 4 -4 16 13 21 21 13 21 -2 0 -10 -8 -17
-17z"/>
<path d="M8494 3338 l-29 -33 33 29 c17 17 32 31 32 33 0 8 -8 1 -36 -29z"/>
<path d="M8928 3333 c12 -2 30 -2 40 0 9 3 -1 5 -23 4 -22 0 -30 -2 -17 -4z"/>
<path d="M8978 3163 c12 -2 32 -2 45 0 12 2 2 4 -23 4 -25 0 -35 -2 -22 -4z"/>
<path d="M8844 3098 l-29 -33 33 29 c17 17 32 31 32 33 0 8 -8 1 -36 -29z"/>
<path d="M8358 3103 c7 -3 16 -2 19 1 4 3 -2 6 -13 5 -11 0 -14 -3 -6 -6z"/>
<path d="M8254 3048 l-19 -23 23 19 c21 18 27 26 19 26 -2 0 -12 -10 -23 -22z"/>
<path d="M7808 3053 c7 -3 16 -2 19 1 4 3 -2 6 -13 5 -11 0 -14 -3 -6 -6z"/>
<path d="M8192 2895 c0 -16 2 -22 5 -12 2 9 2 23 0 30 -3 6 -5 -1 -5 -18z"/>
<path d="M8021 2874 c0 -11 3 -14 6 -6 3 7 2 16 -1 19 -3 4 -6 -2 -5 -13z"/>
<path d="M7601 2864 c0 -11 3 -14 6 -6 3 7 2 16 -1 19 -3 4 -6 -2 -5 -13z"/>
<path d="M7601 2814 c0 -11 3 -14 6 -6 3 7 2 16 -1 19 -3 4 -6 -2 -5 -13z"/>
<path d="M8021 2804 c0 -11 3 -14 6 -6 3 7 2 16 -1 19 -3 4 -6 -2 -5 -13z"/>
<path d="M8554 2748 l-29 -33 33 29 c17 17 32 31 32 33 0 8 -8 1 -36 -29z"/>
<path d="M8958 2743 c7 -3 16 -2 19 1 4 3 -2 6 -13 5 -11 0 -14 -3 -6 -6z"/>
<path d="M8500 2710 c-9 -6 -10 -10 -3 -10 6 0 15 5 18 10 8 12 4 12 -15 0z"/>
<path d="M8388 2683 c12 -2 32 -2 45 0 12 2 2 4 -23 4 -25 0 -35 -2 -22 -4z"/>
<path d="M7808 2623 c7 -3 16 -2 19 1 4 3 -2 6 -13 5 -11 0 -14 -3 -6 -6z"/>
<path d="M8914 2518 l-19 -23 23 19 c12 11 22 21 22 23 0 8 -8 2 -26 -19z"/>
<path d="M8443 2513 c15 -2 37 -2 50 0 12 2 0 4 -28 4 -27 0 -38 -2 -22 -4z"/>
<path d="M8309 2453 c-13 -16 -12 -17 4 -4 16 13 21 21 13 21 -2 0 -10 -8 -17
-17z"/>
<path d="M8615 2450 c10 -11 20 -20 23 -20 3 0 -3 9 -13 20 -10 11 -20 20 -23
20 -3 0 3 -9 13 -20z"/>
<path d="M7908 2453 c7 -3 16 -2 19 1 4 3 -2 6 -13 5 -11 0 -14 -3 -6 -6z"/>
<path d="M8015 2400 c10 -11 20 -20 23 -20 3 0 -3 9 -13 20 -10 11 -20 20 -23
20 -3 0 3 -9 13 -20z"/>
<path d="M8252 2330 c0 -14 2 -19 5 -12 2 6 2 18 0 25 -3 6 -5 1 -5 -13z"/>
<path d="M8671 2334 c0 -11 3 -14 6 -6 3 7 2 16 -1 19 -3 4 -6 -2 -5 -13z"/>
<path d="M8252 2280 c0 -14 2 -19 5 -12 2 6 2 18 0 25 -3 6 -5 1 -5 -13z"/>
<path d="M8083 2245 c0 -22 2 -30 4 -17 2 12 2 30 0 40 -3 9 -5 -1 -4 -23z"/>
<path d="M8310 2155 c13 -14 26 -25 28 -25 3 0 -5 11 -18 25 -13 14 -26 25
-28 25 -3 0 5 -11 18 -25z"/>
<path d="M8609 2153 l-24 -28 28 24 c15 14 27 26 27 28 0 8 -8 1 -31 -24z"/>
<path d="M7720 2095 c13 -14 26 -25 28 -25 3 0 -5 11 -18 25 -13 14 -26 25
-28 25 -3 0 5 -11 18 -25z"/>
<path d="M8418 2093 c7 -3 16 -2 19 1 4 3 -2 6 -13 5 -11 0 -14 -3 -6 -6z"/>
<path d="M8498 2093 c7 -3 16 -2 19 1 4 3 -2 6 -13 5 -11 0 -14 -3 -6 -6z"/>
<path d="M7767 2059 c7 -7 15 -10 18 -7 3 3 -2 9 -12 12 -14 6 -15 5 -6 -5z"/>
<path d="M7848 2033 c12 -2 32 -2 45 0 12 2 2 4 -23 4 -25 0 -35 -2 -22 -4z"/>
<path d="M7908 1863 c12 -2 32 -2 45 0 12 2 2 4 -23 4 -25 0 -35 -2 -22 -4z"/>
</g>
</svg>
